<svg width="181" height="410" viewBox="0 0 181 410" fill="none" xmlns="http://www.w3.org/2000/svg">
<rect x="2" y="2" width="177" height="184.87" rx="5" stroke="white" stroke-width="4"/>
<path d="M90.4323 73.7767C91.688 73.783 92.9265 74.0688 94.0579 74.6133C95.1894 75.1577 96.1855 75.9473 96.9739 76.9246L117.681 102.009C118.891 103.519 119.652 105.339 119.878 107.261C120.105 109.183 119.786 111.129 118.96 112.879C118.289 114.4 117.196 115.695 115.809 116.611C114.422 117.527 112.801 118.024 111.139 118.043H69.7253C68.0636 118.024 66.4425 117.527 65.0557 116.611C63.669 115.695 62.5751 114.4 61.9048 112.879C61.0784 111.129 60.76 109.183 60.9861 107.261C61.2122 105.339 61.9737 103.519 63.1837 102.009L83.8907 76.9246C84.6791 75.9473 85.6752 75.1577 86.8067 74.6133C87.9382 74.0688 89.1767 73.783 90.4323 73.7767Z" fill="white"/>
<rect x="179" y="407.217" width="177" height="184.87" rx="5" transform="rotate(180 179 407.217)" stroke="white" stroke-width="4"/>
<path d="M90.5677 335.441C89.312 335.434 88.0735 335.148 86.9421 334.604C85.8106 334.06 84.8145 333.27 84.0261 332.293L63.319 307.208C62.1091 305.698 61.3476 303.878 61.1215 301.957C60.8954 300.035 61.2138 298.088 62.0402 296.338C62.7105 294.818 63.8044 293.522 65.1911 292.606C66.5779 291.69 68.1989 291.193 69.8607 291.174H111.275C112.936 291.193 114.557 291.69 115.944 292.606C117.331 293.522 118.425 294.818 119.095 296.338C119.922 298.088 120.24 300.035 120.014 301.957C119.788 303.878 119.026 305.698 117.816 307.208L97.1093 332.293C96.3209 333.27 95.3248 334.06 94.1933 334.604C93.0618 335.148 91.8233 335.434 90.5677 335.441Z" fill="white"/>
</svg>
