<svg width="181" height="414" viewBox="0 0 181 414" fill="none" xmlns="http://www.w3.org/2000/svg">
<rect x="2" y="6" width="177" height="184.87" rx="5" stroke="white" stroke-width="4"/>
<path d="M128.496 332.762C128.496 335.728 128.12 338.406 127.367 340.797C126.615 343.143 125.618 345.224 124.379 347.039C123.139 348.81 121.701 350.337 120.062 351.621C118.424 352.861 116.698 353.879 114.883 354.676C113.112 355.473 111.297 356.07 109.438 356.469C107.622 356.823 105.896 357 104.258 357H57.5078V339.734H104.125C106.471 339.734 108.242 339.137 109.438 337.941C110.633 336.746 111.23 335.02 111.23 332.762C111.009 328.158 108.685 325.855 104.258 325.855H77.4961C73.6888 325.855 70.457 325.191 67.8008 323.863C65.1445 322.535 62.9753 320.875 61.293 318.883C59.6549 316.891 58.4596 314.743 57.707 312.441C56.9987 310.139 56.6445 307.992 56.6445 306C56.6445 302.148 57.3307 298.917 58.7031 296.305C60.0755 293.648 61.8021 291.501 63.8828 289.863C65.9635 288.225 68.2214 287.052 70.6562 286.344C73.0911 285.591 75.3711 285.215 77.4961 285.215H119.93V302.48H77.6289C76.7435 302.48 76.0352 302.591 75.5039 302.812C75.0169 302.99 74.6406 303.255 74.375 303.609C74.1536 303.919 74.0208 304.273 73.9766 304.672C73.9323 305.026 73.9102 305.38 73.9102 305.734C73.9544 306.443 74.0872 306.996 74.3086 307.395C74.5299 307.793 74.7956 308.081 75.1055 308.258C75.4596 308.435 75.8359 308.546 76.2344 308.59C76.6771 308.59 77.0977 308.59 77.4961 308.59H104.258C108.685 308.59 112.448 309.387 115.547 310.98C118.646 312.574 121.147 314.589 123.051 317.023C124.954 319.414 126.327 322.026 127.168 324.859C128.053 327.693 128.496 330.327 128.496 332.762Z" fill="white"/>
<rect x="179" y="411.217" width="177" height="184.87" rx="5" transform="rotate(180 179 411.217)" stroke="white" stroke-width="4"/>
<path d="M159.305 62.2148C156.56 68.3685 153.594 74.4336 150.406 80.4102C147.219 86.3424 143.876 91.9648 140.379 97.2773C136.926 102.59 133.384 107.504 129.754 112.02C126.124 116.491 122.516 120.365 118.93 123.641C115.388 126.872 111.913 129.418 108.504 131.277C105.139 133.092 101.952 134 98.9414 134C97.7018 134 96.5508 133.779 95.4883 133.336C94.4258 132.893 93.4961 132.296 92.6992 131.543C91.9023 130.746 91.2826 129.816 90.8398 128.754C90.3971 127.691 90.1758 126.54 90.1758 125.301V93.0938L55.9102 131.41C55.0247 132.296 54.0508 132.96 52.9883 133.402C51.9701 133.801 50.9076 134 49.8008 134C48.6055 134 47.4766 133.779 46.4141 133.336C45.3958 132.893 44.4883 132.296 43.6914 131.543C42.8945 130.746 42.2526 129.816 41.7656 128.754C41.3229 127.691 41.1016 126.54 41.1016 125.301V62.2148H58.3672V103.121L92.7656 64.6719C94.0052 63.4323 95.4661 62.6576 97.1484 62.3477C98.875 61.9935 100.557 62.1706 102.195 62.8789C103.833 63.543 105.117 64.6055 106.047 66.0664C107.021 67.4831 107.508 69.0547 107.508 70.7812V111.82C111.227 108.234 114.591 104.449 117.602 100.465C120.612 96.4805 123.401 92.3854 125.969 88.1797C128.581 83.9297 131.016 79.6354 133.273 75.2969C135.576 70.9141 137.811 66.5534 139.98 62.2148H159.305Z" fill="white"/>
</svg>
