<svg width="63" height="31" viewBox="0 0 63 31" fill="none" xmlns="http://www.w3.org/2000/svg">
<g clip-path="url(#clip0_247_1093)">
<path d="M62.4125 11.3684C62.4189 11.3267 62.4189 11.2846 62.4125 11.243C62.4186 11.2091 62.4186 11.1745 62.4125 11.1405L61.9535 8.21195C61.8874 7.86159 61.7103 7.53412 61.4423 7.26617L61.3636 7.1864L61.2195 7.06105L53.275 1.11286L53.4978 1.30659C53.3155 1.11697 53.0867 0.965304 52.828 0.862757C52.5694 0.76021 52.2876 0.709389 52.0034 0.714043H49.5912C49.1989 0.707288 48.8156 0.815687 48.503 1.02171C48.1748 0.816928 47.7797 0.709083 47.3756 0.714043H44.9634C44.647 0.709581 44.335 0.777828 44.0587 0.911894C43.7825 1.04596 43.5519 1.24108 43.3903 1.4775C43.1411 1.81518 43.0475 2.22203 43.1281 2.61701L43.4296 4.46299C43.2298 4.36456 43.0037 4.31349 42.7741 4.31487H31.0934C30.6743 4.31716 30.2649 4.42393 29.9135 4.62252C29.5737 4.80738 29.301 5.07207 29.1269 5.38598L28.2223 4.71368C27.8663 4.42736 27.3964 4.27216 26.9114 4.28068H8.58405C8.16348 4.28734 7.75225 4.38947 7.39111 4.57695C6.89703 4.82831 6.53495 5.23702 6.38164 5.71645L0.560939 22.638C0.452181 22.9169 0.441482 23.2176 0.530213 23.5017C0.618943 23.7858 0.803084 24.0406 1.05911 24.2334C1.12583 24.2825 1.19587 24.3282 1.26887 24.3701C1.26887 24.3701 1.15087 24.3017 1.08532 24.2448L9.02982 30.2043C9.36589 30.4733 9.80528 30.6236 10.262 30.6259H28.7337C29.1555 30.6164 29.567 30.5103 29.9266 30.3182C30.13 30.2216 30.312 30.0943 30.4641 29.9422L30.5297 29.8624L30.6346 29.7485L30.7132 29.6231L31.5785 30.2727C31.9097 30.5309 32.3396 30.673 32.7845 30.6715H51.2954C51.7168 30.6593 52.1275 30.5534 52.4884 30.3639C52.6872 30.2613 52.8681 30.1347 53.0259 29.9878L53.0914 29.908L53.1963 29.7941C53.252 29.722 53.3004 29.6458 53.3405 29.5662C53.3833 29.4971 53.4184 29.4246 53.4454 29.3497L58.7548 13.8981V13.7613C58.7613 13.7083 58.7613 13.6548 58.7548 13.6018V13.4993C58.7611 13.4653 58.7611 13.4307 58.7548 13.3967C58.7607 13.3246 58.7607 13.2523 58.7548 13.1801H60.4591C60.6073 13.192 60.7565 13.192 60.9048 13.1801H61.0228C61.1187 13.1553 61.2111 13.1208 61.2981 13.0776H61.4292L61.6652 12.9181L61.77 12.8497L61.9535 12.6446V12.5763L62.0847 12.3825C62.0774 12.3449 62.0774 12.3063 62.0847 12.2686C62.0777 12.2501 62.0777 12.2301 62.0847 12.2116C62.1125 12.1448 62.1345 12.0762 62.1502 12.0065C62.1441 11.984 62.1441 11.9606 62.1502 11.9381C62.1439 11.9042 62.1439 11.8695 62.1502 11.8356C62.1502 11.8356 62.4125 11.3911 62.4125 11.3684Z" fill="black"/>
<path d="M27.4492 5.57981C27.5188 5.63451 27.5674 5.70644 27.5884 5.7859C27.6096 5.86536 27.6021 5.94853 27.5672 6.02421L21.7596 22.9344C21.6865 23.119 21.5369 23.2734 21.3401 23.3674C21.18 23.4605 20.9947 23.5155 20.8025 23.527H2.34416C2.18652 23.5204 2.03718 23.4636 1.92464 23.3674C1.85769 23.3136 1.81071 23.2436 1.78969 23.1666C1.76867 23.0894 1.77459 23.0086 1.80666 22.9344L7.62736 6.02421C7.69442 5.83726 7.83933 5.67878 8.03375 5.57981C8.19651 5.49339 8.38095 5.44256 8.57125 5.43167H27.0296C27.1861 5.43298 27.336 5.48594 27.4492 5.57981ZM17.8135 19.5273L21.2876 9.4313H11.5603L8.09929 19.5273H17.8135ZM45.0686 5.75072C45.1316 5.81434 45.2103 5.86479 45.2988 5.89832C45.3873 5.93186 45.4834 5.94763 45.5799 5.94444H47.9789C48.0703 5.94522 48.1603 5.92574 48.2407 5.88786C48.3209 5.84998 48.3887 5.79493 48.4378 5.72793C48.4804 5.6756 48.5105 5.61635 48.5262 5.55371C48.542 5.49107 48.5431 5.42632 48.5295 5.3633L48.0576 2.35502C48.0127 2.21579 47.932 2.08722 47.8217 1.97898C47.7586 1.91536 47.68 1.86492 47.5914 1.83138C47.5029 1.79784 47.4068 1.78208 47.3104 1.78527H44.9113C44.8199 1.78449 44.7298 1.80397 44.6496 1.84185C44.5693 1.87973 44.5014 1.93477 44.4525 2.00178C44.3607 2.1613 44.3213 2.26386 44.3607 2.35502L44.8457 5.3633C44.8706 5.50978 44.9487 5.64551 45.0686 5.75072ZM52.6853 2.33223C52.6403 2.19299 52.5596 2.06443 52.4493 1.95619C52.389 1.89281 52.3126 1.84237 52.2262 1.80877C52.1399 1.77518 52.0457 1.75934 51.9512 1.76247H49.539C49.4491 1.76025 49.3603 1.7792 49.2818 1.81731C49.2033 1.85543 49.1382 1.9113 49.0933 1.97898C49.0061 2.08007 48.9683 2.20706 48.9884 2.33223L49.4734 5.3405C49.5039 5.48544 49.5811 5.61983 49.6963 5.72793C49.7604 5.7903 49.8393 5.83991 49.9276 5.87334C50.0159 5.90677 50.1113 5.92325 50.2076 5.92164H52.6198C52.7094 5.92267 52.7977 5.90322 52.8759 5.86522C52.9542 5.82722 53.0196 5.77203 53.0655 5.70515C53.1111 5.65417 53.143 5.59494 53.1589 5.53185C53.1748 5.46876 53.1742 5.40338 53.1572 5.3405L52.6853 2.33223ZM42.9579 6.89023L42.7219 5.40887H31.0937C30.9111 5.41762 30.7345 5.46878 30.5824 5.55701C30.4858 5.60278 30.4018 5.66621 30.3361 5.74293C30.2706 5.81966 30.2249 5.90784 30.2023 6.00142L29.2321 8.82736C29.1934 8.89798 29.1801 8.97722 29.1942 9.05451C29.2083 9.1318 29.2489 9.20355 29.3107 9.2604C29.4213 9.35072 29.5656 9.40337 29.7172 9.40854H43.8494L40.3753 19.5045H26.2824C26.1007 19.5081 25.9237 19.5555 25.7712 19.6412C25.5858 19.7436 25.4503 19.9018 25.391 20.0856L24.4078 22.9116C24.3757 22.9841 24.3672 23.0629 24.3834 23.1393C24.3997 23.2158 24.4398 23.2868 24.4995 23.3446C24.6066 23.441 24.752 23.4981 24.9059 23.5041H43.4167C43.6082 23.4898 43.7927 23.4351 43.9542 23.3446C44.1478 23.2501 44.293 23.0954 44.3607 22.9116L49.6832 7.45998H43.6921C43.597 7.4616 43.5026 7.44627 43.4147 7.41491C43.3268 7.38355 43.2472 7.33682 43.1808 7.27765C43.0724 7.17432 42.9958 7.04891 42.9579 6.91302V6.89023Z" fill="white"/>
</g>
<defs>
<clipPath id="clip0_247_1093">
<rect width="61.9466" height="29.9578" fill="white" transform="translate(0.470703 0.713745)"/>
</clipPath>
</defs>
</svg>
