<svg width="76" height="37" viewBox="0 0 76 37" fill="none" xmlns="http://www.w3.org/2000/svg">
<g clip-path="url(#clip0_75_6)">
<path d="M75.825 13.42C75.8328 13.3696 75.8328 13.3187 75.825 13.2683C75.8324 13.2272 75.8324 13.1854 75.825 13.1442L75.2697 9.60098C75.1897 9.17707 74.9754 8.78087 74.6512 8.45667L74.5559 8.36016L74.3816 8.20849L64.7694 1.0117L65.0391 1.2461C64.8185 1.01668 64.5416 0.833173 64.2287 0.7091C63.9157 0.585027 63.5747 0.523538 63.2309 0.529169H60.3123C59.8377 0.520996 59.374 0.652149 58.9958 0.901422C58.5987 0.653651 58.1206 0.523168 57.6317 0.529169H54.7131C54.3304 0.523771 53.9528 0.606344 53.6186 0.768552C53.2843 0.930759 53.0053 1.16684 52.8098 1.45289C52.5084 1.86145 52.3951 2.3537 52.4925 2.83159L52.8574 5.06507C52.6157 4.94598 52.3421 4.88419 52.0643 4.88586H37.9316C37.4246 4.88862 36.9292 5.0178 36.504 5.25809C36.093 5.48175 35.763 5.802 35.5524 6.18181L34.4579 5.36839C34.0272 5.02195 33.4586 4.83418 32.8718 4.84449H10.6973C10.1884 4.85255 9.69089 4.97611 9.25395 5.20295C8.65616 5.50707 8.21806 6.00157 8.03257 6.58164L0.990036 27.0553C0.858449 27.3927 0.845505 27.7565 0.952861 28.1003C1.06022 28.444 1.28301 28.7523 1.59278 28.9855C1.6735 29.0449 1.75825 29.1002 1.84657 29.1509C1.84657 29.1509 1.7038 29.0681 1.62449 28.9993L11.2366 36.2098C11.6433 36.5352 12.1749 36.7171 12.7275 36.7199H35.0766C35.587 36.7084 36.0849 36.58 36.52 36.3477C36.7661 36.2308 36.9862 36.0767 37.1703 35.8927L37.2496 35.7962L37.3765 35.6584L37.4716 35.5067L38.5185 36.2926C38.9193 36.605 39.4394 36.7769 39.9778 36.7751H62.3743C62.8841 36.7603 63.3811 36.6322 63.8177 36.4028C64.0583 36.2788 64.2772 36.1256 64.4681 35.9479L64.5473 35.8514L64.6742 35.7135C64.7417 35.6263 64.8002 35.534 64.8487 35.4377C64.9005 35.3542 64.943 35.2664 64.9756 35.1758L71.3995 16.4807V16.3152C71.4074 16.2511 71.4074 16.1864 71.3995 16.1222V15.9982C71.4072 15.957 71.4072 15.9152 71.3995 15.874C71.4067 15.7869 71.4067 15.6993 71.3995 15.6121H73.4616C73.6409 15.6264 73.8214 15.6264 74.0008 15.6121H74.1436C74.2597 15.582 74.3715 15.5403 74.4767 15.488H74.6354L74.9208 15.295L75.0477 15.2123L75.2697 14.9641V14.8814L75.4284 14.647C75.4195 14.6014 75.4195 14.5548 75.4284 14.5092C75.4199 14.4868 75.4199 14.4626 75.4284 14.4402C75.4621 14.3594 75.4886 14.2764 75.5077 14.192C75.5003 14.1648 75.5003 14.1365 75.5077 14.1093C75.5 14.0682 75.5 14.0263 75.5077 13.9852C75.5077 13.9852 75.825 13.4475 75.825 13.42Z" fill="black"/>
<path d="M33.5226 6.41647C33.6068 6.48266 33.6656 6.56969 33.6911 6.66583C33.7167 6.76197 33.7076 6.8626 33.6654 6.95416L26.6387 27.414C26.5502 27.6374 26.3692 27.8241 26.1311 27.9379C25.9374 28.0506 25.7132 28.1171 25.4807 28.131H3.14771C2.95698 28.123 2.77629 28.0543 2.64013 27.9379C2.55913 27.8728 2.50228 27.7882 2.47685 27.6949C2.45142 27.6016 2.45858 27.5038 2.49738 27.414L9.53992 6.95416C9.62106 6.72796 9.79639 6.53622 10.0316 6.41647C10.2285 6.31192 10.4517 6.25042 10.6819 6.23723H33.015C33.2042 6.23882 33.3857 6.3029 33.5226 6.41647ZM21.8643 23.2917L26.0676 11.0764H14.2984L10.1109 23.2917H21.8643ZM54.8405 6.62327C54.9167 6.70024 55.012 6.76127 55.1191 6.80185C55.2262 6.84243 55.3424 6.8615 55.4592 6.85764H58.3618C58.4724 6.85859 58.5812 6.83503 58.6785 6.78919C58.7756 6.74336 58.8576 6.67676 58.917 6.59569C58.9685 6.53237 59.0049 6.46068 59.024 6.38489C59.043 6.30911 59.0444 6.23077 59.0279 6.15452L58.457 2.51476C58.4026 2.3463 58.305 2.19075 58.1715 2.05979C58.0952 1.98282 58.0001 1.92178 57.893 1.8812C57.7858 1.84062 57.6696 1.82156 57.5529 1.82541H54.6502C54.5397 1.82448 54.4307 1.84804 54.3336 1.89387C54.2364 1.9397 54.1543 2.0063 54.0951 2.08737C53.984 2.28038 53.9364 2.40446 53.984 2.51476L54.5709 6.15452C54.601 6.33175 54.6955 6.49597 54.8405 6.62327ZM64.0561 2.48718C64.0017 2.31872 63.904 2.16317 63.7706 2.03221C63.6976 1.95552 63.6052 1.8945 63.5007 1.85385C63.3962 1.81321 63.2823 1.79404 63.1679 1.79783H60.2493C60.1406 1.79514 60.0331 1.81807 59.9381 1.86418C59.8432 1.9103 59.7644 1.9779 59.7101 2.05979C59.6045 2.1821 59.5588 2.33574 59.5832 2.48718L60.17 6.12694C60.2068 6.3023 60.3003 6.4649 60.4397 6.59569C60.5172 6.67116 60.6127 6.73117 60.7195 6.77162C60.8263 6.81207 60.9417 6.83201 61.0582 6.83006H63.9768C64.0853 6.83131 64.1921 6.80778 64.2867 6.7618C64.3814 6.71582 64.4605 6.64905 64.5161 6.56813C64.5713 6.50644 64.6098 6.43479 64.6291 6.35845C64.6483 6.28212 64.6476 6.20302 64.6271 6.12694L64.0561 2.48718ZM52.2868 8.00197L52.0013 6.20966H37.9321C37.7112 6.22024 37.4975 6.28214 37.3135 6.38889C37.1967 6.44426 37.095 6.52102 37.0155 6.61384C36.9362 6.70668 36.8809 6.81337 36.8536 6.92658L35.6798 10.3457C35.6329 10.4312 35.6169 10.527 35.6339 10.6206C35.6509 10.7141 35.7001 10.8009 35.7749 10.8697C35.9087 10.9789 36.0832 11.0426 36.2667 11.0489H53.3655L49.1621 23.2642H32.1109C31.891 23.2685 31.6769 23.3258 31.4924 23.4295C31.268 23.5534 31.1042 23.7449 31.0323 23.9673L29.8427 27.3865C29.8039 27.4742 29.7937 27.5695 29.8133 27.6619C29.8329 27.7545 29.8815 27.8404 29.9537 27.9103C30.0833 28.0269 30.2592 28.096 30.4454 28.1033H52.842C53.0736 28.086 53.2969 28.0198 53.4922 27.9103C53.7265 27.796 53.9022 27.6088 53.984 27.3865L60.4238 8.69132H53.1751C53.06 8.69328 52.9458 8.67472 52.8395 8.63678C52.7331 8.59884 52.6368 8.54231 52.5565 8.47071C52.4254 8.34569 52.3326 8.19396 52.2868 8.02954V8.00197Z" fill="white"/>
</g>
<defs>
<clipPath id="clip0_75_6">
<rect width="74.9499" height="36.2463" fill="white" transform="translate(0.880859 0.528809)"/>
</clipPath>
</defs>
</svg>
